<svg fill="#000000" xmlns="http://www.w3.org/2000/svg" viewBox="0 0 30 30" width="30px" height="30px"><path d="M23,2H7C5.895,2,5,2.895,5,4v22c0,1.105,0.895,2,2,2h11.5c0.265,0,0.519-0.105,0.707-0.293l5.5-5.5C24.895,22.019,25,21.765,25,21.5V4C25,2.895,24.105,2,23,2z M9,6c0.552,0,1,0.448,1,1c0,0.552-0.448,1-1,1S8,7.552,8,7C8,6.448,8.448,6,9,6z M13,6h8c0.552,0,1,0.448,1,1s-0.448,1-1,1h-8c-0.552,0-1-0.448-1-1S12.448,6,13,6z M9,11c0.552,0,1,0.448,1,1c0,0.552-0.448,1-1,1s-1-0.448-1-1C8,11.448,8.448,11,9,11z M13,11h8c0.552,0,1,0.448,1,1s-0.448,1-1,1h-8c-0.552,0-1-0.448-1-1S12.448,11,13,11z M9,16c0.552,0,1,0.448,1,1c0,0.552-0.448,1-1,1s-1-0.448-1-1C8,16.448,8.448,16,9,16z M13,16h8c0.552,0,1,0.448,1,1s-0.448,1-1,1h-8c-0.552,0-1-0.448-1-1S12.448,16,13,16z M9,21c0.552,0,1,0.448,1,1c0,0.552-0.448,1-1,1s-1-0.448-1-1C8,21.448,8.448,21,9,21z M13,21h3v2h-3c-0.552,0-1-0.448-1-1S12.448,21,13,21z M18,26.096V22c0-0.552,0.448-1,1-1h4.096L18,26.096z"/></svg>